<svg id="Layer_1" enable-background="new 0 0 479.88 479.88" height="56" viewBox="0 0 479.88 479.88" width="56" xmlns="http://www.w3.org/2000/svg"><g><g><path d="m423.942 239.94c0 101.562-82.32 184-184 184-101.469 0-184-82.238-184-184 0-98.6 77.55-179.08 174.98-183.78 104.134-5.221 193.02 77.893 193.02 183.78z" fill="#d6f4fc"/></g><g><path d="m420.552 204.6c-12.13 9.49-26.26 16.56-40.83 21.73-8.07 2.86-16.51 5.21-25.06 4.84-16.51-.72-31.95-12.64-36.83-28.42-1.72-5.58-2.25-11.58-4.96-16.75-6.81-12.98-24.03-15.78-38.69-15.48-24.227.48-54.163 5.901-76.68-9.47-5.74-3.91-11.04-10.49-9.17-17.18.648-2.318 1.85-3.62 1.85-3.72 33.44-12.06 73.8-20.21 121.75-20.21v23.91c0 13.24 15.1 20.79 25.69 12.85l44.59-33.44c19.566 23.81 32.646 51.935 38.34 81.34z" fill="#e8f8fc"/></g><g><path d="m423.852 245.81c-3.1 98.9-84.25 178.13-183.91 178.13-72.692 0-135.214-42.104-165.08-102.65 8.27-6.49 43.629-37.037 93.075-28.085 19.519 3.534 53.211 31.622 72.001 37.952 67.68 22.8 124.354-.417 166.484-58.077 6.36-8.69 11.89-17.99 17.43-27.27z" fill="#e8f8fc"/></g><g><path d="m287.942 239.94c0 33.201-32.837 56.1-63.71 45.37-18.79-6.5-32.29-24.36-32.29-45.37 0-26.39 21.383-48 48-48 26.51 0 48 21.49 48 48z" fill="#80aaff"/></g><g><path d="m287.942 239.94c0 33.201-32.837 56.1-63.71 45.37 9.308-11.347 28.302-9.629 36.36-22.24 4.1-6.43 3.49-15.18-.41-21.74s-10.65-11.08-17.86-13.58c-3.33-1.16-6.81-1.94-10.01-3.45-7.755-3.689-16.552-13.835-19.51-23.95 7.72-5.31 17.06-8.41 27.14-8.41 26.51 0 48 21.49 48 48z" fill="#6994ff"/></g><g><path d="m414.347 99.15-76.73 57.55c-10.59 7.94-25.69.39-25.69-12.85v-23.91c-48.14 0-88.61 8.21-122.13 20.35-94.61 34.23-133.86 99.65-133.86 99.65 0-110.46 89.54-200 200-200h55.99v-23.85c0-13.23 15.1-20.79 25.69-12.85 65.873 49.405 49.456 37.091 76.73 57.55 12.79 9.59 12.79 28.77 0 38.36z" fill="#ff6d7a"/></g><g><path d="m423.94 239.94c0 110.439-89.525 200-200 200h-55.99v23.85c0 13.23-15.1 20.79-25.69 12.85-65.873-49.405-49.456-37.091-76.73-57.55-12.79-9.59-12.79-28.77 0-38.36l76.73-57.55c10.59-7.94 25.69-.39 25.69 12.85v23.91c48.14 0 88.61-8.21 122.13-20.35 94.61-34.23 133.86-99.65 133.86-99.65z" fill="#ff6d7a"/></g><g><path d="m409.81 313.93c-29.42 73.83-101.55 126.01-185.87 126.01h-55.94c-1.413-15.526 17.349-34.106 31.94-39.94 40-16 61.69-.02 88-8 28.65-8.69 61.07-27.32 82.5-48.23 11.665-11.39 23.836-24.163 39.37-29.84z" fill="#fe4f60"/></g><g><path d="m101.419 190.479c7.97-21.176 16.543-37.139 34.029-54.069 4.322-4.184 11.122-10.595 16.953-9.117 10.053 2.549 16.923 30.069 1.005 47.738-6.813 7.563-16.42 12.052-23.735 19.131-13.598 13.159-17.554 33.822-15.16 52.593 2.306 18.077-9.21 27.856-16 6.903-5.828-17.988-3.508-46.132 2.908-63.179z" fill="#fff"/></g><g><path d="m108.331 406.744c7.521 9.926 19.163 11.516 24.5 8.075 2.211-1.425 3.761-4.049 3.399-6.655-.639-4.596-6.131-6.553-9.094-10.125-3.092-3.728-3.496-9.439-7.346-12.377-2.153-1.643-5.092-2.07-7.73-1.455-11.153 2.598-9.203 15.312-3.729 22.537z" fill="#fff"/></g></g></svg>